<?xml version="1.0" standalone="no"?>
<!DOCTYPE svg PUBLIC "-//W3C//DTD SVG 20010904//EN"
 "http://www.w3.org/TR/2001/REC-SVG-20010904/DTD/svg10.dtd">
<svg version="1.0" xmlns="http://www.w3.org/2000/svg"
 width="200.000000pt" height="200.000000pt" viewBox="0 0 200.000000 200.000000"
 preserveAspectRatio="xMidYMid meet">
<metadata>
Created by potrace 1.14, written by Peter Selinger 2001-2017
</metadata>
<g transform="translate(0.000000,200.000000) scale(0.100000,-0.100000)"
fill="#000000" stroke="none">
<path d="M0 1000 l0 -1000 1000 0 1000 0 0 1000 0 1000 -1000 0 -1000 0 0
-1000z m1139 675 c-4 -5 -9 -19 -12 -30 -4 -19 -5 -18 -6 2 0 12 -5 24 -10 27
-5 4 -4 16 2 30 l11 24 12 -22 c6 -11 7 -25 3 -31z m-114 -35 c-5 -8 -11 -8
-17 -2 -6 6 -7 16 -3 22 5 8 11 8 17 2 6 -6 7 -16 3 -22z m55 -69 c0 -20 8
-35 22 -45 17 -12 19 -16 6 -16 -18 0 -28 -20 -28 -56 0 -13 -4 -24 -10 -24
-5 0 -10 13 -10 30 0 19 -7 34 -19 42 -20 12 -20 12 0 26 11 8 19 25 19 43 0
16 5 29 10 29 6 0 10 -13 10 -29z m-37 -296 c-2 -49 -9 -115 -15 -146 -11 -53
-12 -55 -40 -51 -31 5 -35 -5 -14 -33 12 -16 16 -17 30 -6 30 25 17 -8 -18
-47 l-34 -38 12 -59 c20 -90 65 -185 87 -185 11 0 19 -4 19 -10 0 -5 -11 -10
-25 -10 -19 0 -36 16 -74 68 -30 40 -50 78 -51 94 0 25 -1 26 -36 15 l-35 -11
22 -17 c20 -15 21 -20 11 -62 -16 -62 -15 -65 11 -70 12 -2 3 -5 -21 -6 l-43
-1 3 51 c2 35 -1 53 -9 56 -7 3 -13 -2 -13 -10 0 -9 -15 -27 -32 -42 -32 -25
-32 -26 -14 -40 20 -15 20 -15 0 -15 -10 0 -27 7 -38 15 -17 13 -17 15 10 50
l28 37 -27 20 c-51 37 -55 126 -9 200 12 18 42 53 67 78 74 72 92 124 60 180
-18 32 -18 40 0 40 19 0 45 -51 45 -90 0 -42 -20 -77 -75 -130 -68 -65 -105
-126 -105 -173 l0 -39 38 33 c20 19 58 45 84 59 35 18 48 31 46 45 0 11 0 27
0 36 2 17 42 39 72 39 21 0 33 30 49 122 6 34 7 69 1 87 -5 18 -5 33 1 36 5 4
9 15 9 26 0 16 3 17 13 7 10 -9 13 -36 10 -103z m-575 -782 l-3 -138 -25 1
c-14 1 -28 2 -32 3 -5 0 -8 62 -8 136 l0 135 35 0 36 0 -3 -137z m180 124 c9
-7 16 -7 24 1 15 15 51 15 66 0 8 -8 12 -53 12 -135 l0 -123 -35 0 -35 0 0
105 c0 63 -4 105 -10 105 -6 0 -10 -42 -10 -105 l0 -105 -35 0 -35 0 0 105 c0
63 -4 105 -10 105 -6 0 -10 -41 -10 -104 0 -58 -3 -107 -8 -109 -4 -3 -19 -3
-35 0 l-27 5 0 127 c0 70 3 130 6 134 10 10 128 5 142 -6z m261 -9 c8 -21 5
-23 -25 -26 -30 -3 -34 -7 -34 -32 0 -24 5 -29 28 -32 26 -3 27 -5 30 -71 2
-38 -1 -74 -7 -80 -9 -12 -90 -13 -117 -3 -27 10 -15 35 19 38 28 3 32 7 35
36 3 28 0 32 -20 32 -37 0 -48 19 -48 80 0 31 5 61 12 68 7 7 36 12 65 12 46
0 55 -3 62 -22z m175 16 c13 -5 16 -27 16 -135 l0 -130 -82 3 -83 3 -3 119
c-2 78 1 123 9 132 12 14 112 20 143 8z m376 -59 c0 -10 -11 -15 -35 -15 -24
0 -35 -5 -35 -15 0 -10 11 -15 35 -15 19 0 35 -4 35 -10 0 -5 -16 -10 -35 -10
l-35 0 0 -70 c0 -40 -4 -70 -10 -70 -6 0 -10 40 -10 100 0 84 3 101 18 109 27
16 72 13 72 -4z m70 -15 c0 -28 3 -30 35 -30 19 0 35 -4 35 -10 0 -5 -16 -10
-35 -10 l-36 0 3 -57 c3 -57 3 -58 36 -61 17 -2 32 -7 32 -13 0 -13 -64 -11
-78 3 -15 15 -17 208 -2 208 6 0 10 -13 10 -30z m-216 -46 c10 -25 7 -144 -4
-144 -5 0 -10 30 -12 68 l-3 67 -57 3 -58 3 0 -71 c0 -53 -3 -71 -12 -68 -9 3
-14 31 -16 81 l-3 77 80 0 c63 0 80 -3 85 -16z"/>
<path d="M920 1030 c0 -5 5 -10 11 -10 5 0 7 5 4 10 -3 6 -8 10 -11 10 -2 0
-4 -4 -4 -10z"/>
<path d="M1004 567 c-10 -27 1 -160 14 -165 9 -3 12 19 12 87 0 56 -4 91 -10
91 -6 0 -13 -6 -16 -13z"/>
</g>
</svg>
